  0
SECTION
  2
HEADER
  9
$ACADVER
  1
AC1009
  9
$DWGCODEPAGE
  3
ansi_1252
  9
$INSBASE
 10
0.0
 20
0.0
 30
0.0
  9
$EXTMIN
 10
0.0937066
 20
0.0909507
 30
0.0
  9
$EXTMAX
 10
348.708
 20
115.343
 30
0.0
  9
$LIMMIN
 10
0.0
 20
0.0
  9
$LIMMAX
 10
12.0
 20
9.0
  9
$ORTHOMODE
 70
     0
  9
$REGENMODE
 70
     1
  9
$FILLMODE
 70
     0
  9
$QTEXTMODE
 70
     0
  9
$MIRRTEXT
 70
     1
  9
$DRAGMODE
 70
     2
  9
$LTSCALE
 40
1.0
  9
$OSMODE
 70
    37
  9
$ATTMODE
 70
     1
  9
$TEXTSIZE
 40
0.2
  9
$TRACEWID
 40
0.05
  9
$TEXTSTYLE
  7
STANDARD
  9
$CLAYER
  8
0
  9
$CELTYPE
  6
BYLAYER
  9
$CECOLOR
 62
   256
  9
$DIMSCALE
 40
1.0
  9
$DIMASZ
 40
0.18
  9
$DIMEXO
 40
0.0625
  9
$DIMDLI
 40
0.38
  9
$DIMRND
 40
0.0
  9
$DIMDLE
 40
0.0
  9
$DIMEXE
 40
0.18
  9
$DIMTP
 40
0.0
  9
$DIMTM
 40
0.0
  9
$DIMTXT
 40
0.18
  9
$DIMCEN
 40
0.09
  9
$DIMTSZ
 40
0.0
  9
$DIMTOL
 70
     0
  9
$DIMLIM
 70
     0
  9
$DIMTIH
 70
     1
  9
$DIMTOH
 70
     1
  9
$DIMSE1
 70
     0
  9
$DIMSE2
 70
     0
  9
$DIMTAD
 70
     0
  9
$DIMZIN
 70
     0
  9
$DIMBLK
  1

  9
$DIMASO
 70
     1
  9
$DIMSHO
 70
     1
  9
$DIMPOST
  1

  9
$DIMAPOST
  1

  9
$DIMALT
 70
     0
  9
$DIMALTD
 70
     2
  9
$DIMALTF
 40
25.4
  9
$DIMLFAC
 40
1.0
  9
$DIMTOFL
 70
     0
  9
$DIMTVP
 40
0.0
  9
$DIMTIX
 70
     0
  9
$DIMSOXD
 70
     0
  9
$DIMSAH
 70
     0
  9
$DIMBLK1
  1

  9
$DIMBLK2
  1

  9
$DIMSTYLE
  2
STANDARD
  9
$DIMCLRD
 70
     0
  9
$DIMCLRE
 70
     0
  9
$DIMCLRT
 70
     0
  9
$DIMTFAC
 40
1.0
  9
$DIMGAP
 40
0.09
  9
$LUNITS
 70
     2
  9
$LUPREC
 70
     4
  9
$SKETCHINC
 40
0.1
  9
$FILLETRAD
 40
0.0
  9
$AUNITS
 70
     0
  9
$AUPREC
 70
     0
  9
$MENU
  1
.
  9
$ELEVATION
 40
0.0
  9
$PELEVATION
 40
0.0
  9
$THICKNESS
 40
0.0
  9
$LIMCHECK
 70
     0
  9
$CHAMFERA
 40
0.0
  9
$CHAMFERB
 40
0.0
  9
$SKPOLY
 70
     0
  9
$TDCREATE
 40
2459413.983572315
  9
$TDUPDATE
 40
2459413.983572338
  9
$TDINDWG
 40
0.0000000116
  9
$TDUSRTIMER
 40
0.0000000116
  9
$USRTIMER
 70
     1
  9
$ANGBASE
 50
0.0
  9
$ANGDIR
 70
     0
  9
$PDMODE
 70
     0
  9
$PDSIZE
 40
0.0
  9
$PLINEWID
 40
0.0
  9
$COORDS
 70
     1
  9
$SPLFRAME
 70
     1
  9
$SPLINETYPE
 70
     6
  9
$SPLINESEGS
 70
     8
  9
$ATTDIA
 70
     0
  9
$ATTREQ
 70
     1
  9
$HANDLING
 70
     1
  9
$HANDSEED
  5
83D
  9
$SURFTAB1
 70
     6
  9
$SURFTAB2
 70
     6
  9
$SURFTYPE
 70
     6
  9
$SURFU
 70
     6
  9
$SURFV
 70
     6
  9
$UCSNAME
  2

  9
$UCSORG
 10
0.0
 20
0.0
 30
0.0
  9
$UCSXDIR
 10
1.0
 20
0.0
 30
0.0
  9
$UCSYDIR
 10
0.0
 20
1.0
 30
0.0
  9
$PUCSNAME
  2

  9
$PUCSORG
 10
0.0
 20
0.0
 30
0.0
  9
$PUCSXDIR
 10
1.0
 20
0.0
 30
0.0
  9
$PUCSYDIR
 10
0.0
 20
1.0
 30
0.0
  9
$USERI1
 70
     0
  9
$USERI2
 70
     0
  9
$USERI3
 70
     0
  9
$USERI4
 70
     0
  9
$USERI5
 70
     0
  9
$USERR1
 40
0.0
  9
$USERR2
 40
0.0
  9
$USERR3
 40
0.0
  9
$USERR4
 40
0.0
  9
$USERR5
 40
0.0
  9
$WORLDVIEW
 70
     1
  9
$SHADEDGE
 70
     3
  9
$SHADEDIF
 70
    70
  9
$TILEMODE
 70
     1
  9
$MAXACTVP
 70
    64
  9
$PLIMCHECK
 70
     0
  9
$PEXTMIN
 10
1.000000000000000E+20
 20
1.000000000000000E+20
 30
1.000000000000000E+20
  9
$PEXTMAX
 10
-1.000000000000000E+20
 20
-1.000000000000000E+20
 30
-1.000000000000000E+20
  9
$PLIMMIN
 10
-0.25
 20
-0.25
  9
$PLIMMAX
 10
10.75
 20
8.25
  9
$UNITMODE
 70
     0
  9
$VISRETAIN
 70
     1
  9
$PLINEGEN
 70
     0
  9
$PSLTSCALE
 70
     1
  0
ENDSEC
  0
SECTION
  2
TABLES
  0
TABLE
  2
VPORT
 70
     1
  0
VPORT
  2
*ACTIVE
 70
     0
 10
0.0
 20
0.0
 11
1.0
 21
1.0
 12
174.4008533
 22
57.71697535
 13
0.0
 23
0.0
 14
0.5
 24
0.5
 15
0.5
 25
0.5
 16
0.0
 26
0.0
 36
1.0
 17
0.0
 27
0.0
 37
0.0
 40
189.5244372849207
 41
1.885036496350365
 42
50.0
 43
0.0
 44
0.0
 50
0.0
 51
0.0
 71
     0
 72
   100
 73
     1
 74
     3
 75
     0
 76
     0
 77
     0
 78
     0
  0
ENDTAB
  0
TABLE
  2
LTYPE
 70
    48
  0
LTYPE
  2
CONTINUOUS
 70
     0
  3
Solid line
 72
    65
 73
     0
 40
0.0
  0
LTYPE
  2
BORDER2
 70
     0
  3
Border (.5x) __.__.__.__.__.__.__.__.__.__.__.
 72
    65
 73
     6
 40
22.225
 49
6.35
 49
-3.175
 49
6.35
 49
-3.175
 49
0.0
 49
-3.175
  0
LTYPE
  2
BORDERX2
 70
     0
  3
Border (2x) ____  ____  .  ____  ____  .  ___
 72
    65
 73
     6
 40
88.89999999999999
 49
25.4
 49
-12.7
 49
25.4
 49
-12.7
 49
0.0
 49
-12.7
  0
LTYPE
  2
CENTER
 70
     0
  3
Center ____ _ ____ _ ____ _ ____ _ ____ _ ____
 72
    65
 73
     4
 40
50.8
 49
31.75
 49
-6.35
 49
6.35
 49
-6.35
  0
LTYPE
  2
CENTER2
 70
     0
  3
Center (.5x) ___ _ ___ _ ___ _ ___ _ ___ _ ___
 72
    65
 73
     4
 40
28.575
 49
19.05
 49
-3.175
 49
3.175
 49
-3.175
  0
LTYPE
  2
CENTERX2
 70
     0
  3
Center (2x) ________  __  ________  __  _____
 72
    65
 73
     4
 40
101.6
 49
63.5
 49
-12.7
 49
12.7
 49
-12.7
  0
LTYPE
  2
DASHDOT
 70
     0
  3
Dash dot __ . __ . __ . __ . __ . __ . __ . __
 72
    65
 73
     4
 40
25.4
 49
12.7
 49
-6.35
 49
0.0
 49
-6.35
  0
LTYPE
  2
DASHDOT2
 70
     0
  3
Dash dot (.5x) _._._._._._._._._._._._._._._.
 72
    65
 73
     4
 40
12.7
 49
6.35
 49
-3.175
 49
0.0
 49
-3.175
  0
LTYPE
  2
DASHDOTX2
 70
     0
  3
Dash dot (2x) ____  .  ____  .  ____  .  ___
 72
    65
 73
     4
 40
50.8
 49
25.4
 49
-12.7
 49
0.0
 49
-12.7
  0
LTYPE
  2
ACAD_ISO10W100
 70
     0
  3
ISO dash dot __ . __ . __ . __ . __ . __ . __ . 
 72
    65
 73
     4
 40
18.0
 49
12.0
 49
-3.0
 49
0.0
 49
-3.0
  0
LTYPE
  2
ACAD_ISO11W100
 70
     0
  3
ISO double-dash dot __ __ . __ __ . __ __ . __ _
 72
    65
 73
     6
 40
33.0
 49
12.0
 49
-3.0
 49
12.0
 49
-3.0
 49
0.0
 49
-3.0
  0
LTYPE
  2
ACAD_ISO12W100
 70
     0
  3
ISO dash double-dot __ . . __ . . __ . . __ . . 
 72
    65
 73
     6
 40
21.0
 49
12.0
 49
-3.0
 49
0.0
 49
-3.0
 49
0.0
 49
-3.0
  0
LTYPE
  2
ACAD_ISO13W100
 70
     0
  3
ISO double-dash double-dot __ __ . . __ __ . . _
 72
    65
 73
     8
 40
36.0
 49
12.0
 49
-3.0
 49
12.0
 49
-3.0
 49
0.0
 49
-3.0
 49
0.0
 49
-3.0
  0
LTYPE
  2
ACAD_ISO14W100
 70
     0
  3
ISO dash triple-dot __ . . . __ . . . __ . . . _
 72
    65
 73
     8
 40
24.0
 49
12.0
 49
-3.0
 49
0.0
 49
-3.0
 49
0.0
 49
-3.0
 49
0.0
 49
-3.0
  0
LTYPE
  2
ACAD_ISO15W100
 70
     0
  3
ISO double-dash triple-dot __ __ . . . __ __ . .
 72
    65
 73
    10
 40
39.0
 49
12.0
 49
-3.0
 49
12.0
 49
-3.0
 49
0.0
 49
-3.0
 49
0.0
 49
-3.0
 49
0.0
 49
-3.0
  0
LTYPE
  2
BATTING
 70
     0
  3
Batting SSSSSSSSSSSSSSSSSSSSSSSSSSSSSSSSSSSSSSSSSSSSSSS
 72
    65
 73
     4
 40
10.16254
 49
0.00254
 49
-2.54
 49
-5.08
 49
-2.54
  0
LTYPE
  2
BORDER
 70
     0
  3
Border __ __ . __ __ . __ __ . __ __ . __ __ .
 72
    65
 73
     6
 40
44.45
 49
12.7
 49
-6.35
 49
12.7
 49
-6.35
 49
0.0
 49
-6.35
  0
LTYPE
  2
DOTX2
 70
     0
  3
Dot (2x) .  .  .  .  .  .  .  .  .  .  .  .  .  .
 72
    65
 73
     2
 40
12.7
 49
0.0
 49
-12.7
  0
LTYPE
  2
DRAINAGE
 70
     0
  3
Drainage ---->---->---->----
 72
    65
 73
     2
 40
10.16
 49
5.08
 49
5.08
  0
LTYPE
  2
DRAINAGE2
 70
     0
  3
Drainage reversed----<----<----<----
 72
    65
 73
     2
 40
10.16
 49
5.08
 49
5.08
  0
LTYPE
  2
FENCELINE1
 70
     0
  3
Fenceline circle ----0-----0----0-----0----0-----0--
 72
    65
 73
     4
 40
36.83
 49
6.35
 49
-2.54
 49
-2.54
 49
25.4
  0
LTYPE
  2
FENCELINE2
 70
     0
  3
Fenceline square ----[]-----[]----[]-----[]----[]---
 72
    65
 73
     4
 40
36.83
 49
6.35
 49
-2.54
 49
-2.54
 49
25.4
  0
LTYPE
  2
GAS_LINE
 70
     0
  3
Gas line ----GAS----GAS----GAS----GAS----GAS----GAS--
 72
    65
 73
     3
 40
24.13
 49
12.7
 49
-5.08
 49
-6.35
  0
LTYPE
  2
HIDDEN
 70
     0
  3
Hidden __ __ __ __ __ __ __ __ __ __ __ __ __ __
 72
    65
 73
     2
 40
9.524999999999999
 49
6.35
 49
-3.175
  0
LTYPE
  2
HIDDEN2
 70
     0
  3
Hidden (.5x) _ _ _ _ _ _ _ _ _ _ _ _ _ _ _ _ _ 
 72
    65
 73
     2
 40
4.762499999999999
 49
3.175
 49
-1.5875
  0
LTYPE
  2
DASHED
 70
     0
  3
Dashed __ __ __ __ __ __ __ __ __ __ __ __ __ _
 72
    65
 73
     2
 40
19.05
 49
12.7
 49
-6.35
  0
LTYPE
  2
DASHED2
 70
     0
  3
Dashed (.5x) _ _ _ _ _ _ _ _ _ _ _ _ _ _ _ _ _ 
 72
    65
 73
     2
 40
9.524999999999999
 49
6.35
 49
-3.175
  0
LTYPE
  2
DASHEDX2
 70
     0
  3
Dashed (2x) ____  ____  ____  ____  ____  ___
 72
    65
 73
     2
 40
38.09999999999999
 49
25.4
 49
-12.7
  0
LTYPE
  2
DIVIDE
 70
     0
  3
Divide ____ . . ____ . . ____ . . ____ . . ____
 72
    65
 73
     6
 40
31.75
 49
12.7
 49
-6.35
 49
0.0
 49
-6.35
 49
0.0
 49
-6.35
  0
LTYPE
  2
DIVIDE2
 70
     0
  3
Divide (.5x) __..__..__..__..__..__..__..__.._
 72
    65
 73
     6
 40
15.875
 49
6.35
 49
-3.175
 49
0.0
 49
-3.175
 49
0.0
 49
-3.175
  0
LTYPE
  2
DIVIDEX2
 70
     0
  3
Divide (2x) ________  .  .  ________  .  .  _
 72
    65
 73
     6
 40
63.5
 49
25.4
 49
-12.7
 49
0.0
 49
-12.7
 49
0.0
 49
-12.7
  0
LTYPE
  2
DOT
 70
     0
  3
Dot . . . . . . . . . . . . . . . . . . . . . . . .
 72
    65
 73
     2
 40
6.35
 49
0.0
 49
-6.35
  0
LTYPE
  2
DOT2
 70
     0
  3
Dot (.5x) ........................................
 72
    65
 73
     2
 40
3.175
 49
0.0
 49
-3.175
  0
LTYPE
  2
HIDDENX2
 70
     0
  3
Hidden (2x) ____ ____ ____ ____ ____ ____ ____ 
 72
    65
 73
     2
 40
19.05
 49
12.7
 49
-6.35
  0
LTYPE
  2
HOT_WATER_SUPPLY
 70
     0
  3
Hot water supply ---- HW ---- HW ---- HW ----
 72
    65
 73
     3
 40
22.86
 49
12.7
 49
-5.08
 49
-5.08
  0
LTYPE
  2
PHANTOM
 70
     0
  3
Phantom ______  __  __  ______  __  __  ______ 
 72
    65
 73
     6
 40
63.50000000000001
 49
31.75
 49
-6.35
 49
6.35
 49
-6.35
 49
6.35
 49
-6.35
  0
LTYPE
  2
PHANTOM2
 70
     0
  3
Phantom (.5x) ___ _ _ ___ _ _ ___ _ _ ___ _ _
 72
    65
 73
     6
 40
31.75
 49
15.875
 49
-3.175
 49
3.175
 49
-3.175
 49
3.175
 49
-3.175
  0
LTYPE
  2
PHANTOMX2
 70
     0
  3
Phantom (2x) ____________    ____    ____   _
 72
    65
 73
     6
 40
127.0
 49
63.5
 49
-12.7
 49
12.7
 49
-12.7
 49
12.7
 49
-12.7
  0
LTYPE
  2
TRACKS
 70
     0
  3
Tracks -|-|-|-|-|-|-|-|-|-|-|-|-|-|-|-|-|-|-|-|-|-|-|-|-
 72
    65
 73
     2
 40
7.62
 49
3.81
 49
3.81
  0
LTYPE
  2
ZIGZAG
 70
     0
  3
Zig zag /\/\/\/\/\/\/\/\/\/\/\/\/\/\/\/\/\/\/\/\/\/\/\/
 72
    65
 73
     4
 40
20.32254
 49
0.00254
 49
-5.08
 49
-10.16
 49
-5.08
  0
LTYPE
  2
ACAD_ISO02W100
 70
     0
  3
ISO dash __ __ __ __ __ __ __ __ __ __ __ __ __
 72
    65
 73
     2
 40
15.0
 49
12.0
 49
-3.0
  0
LTYPE
  2
ACAD_ISO03W100
 70
     0
  3
ISO dash space __    __    __    __    __    __
 72
    65
 73
     2
 40
30.0
 49
12.0
 49
-18.0
  0
LTYPE
  2
ACAD_ISO04W100
 70
     0
  3
ISO long-dash dot ____ . ____ . ____ . ____ . _
 72
    65
 73
     4
 40
30.0
 49
24.0
 49
-3.0
 49
0.0
 49
-3.0
  0
LTYPE
  2
ACAD_ISO05W100
 70
     0
  3
ISO long-dash double-dot ____ .. ____ .. ____ . 
 72
    65
 73
     6
 40
33.0
 49
24.0
 49
-3.0
 49
0.0
 49
-3.0
 49
0.0
 49
-3.0
  0
LTYPE
  2
ACAD_ISO06W100
 70
     0
  3
ISO long-dash triple-dot ____ ... ____ ... ____
 72
    65
 73
     8
 40
36.0
 49
24.0
 49
-3.0
 49
0.0
 49
-3.0
 49
0.0
 49
-3.0
 49
0.0
 49
-3.0
  0
LTYPE
  2
ACAD_ISO07W100
 70
     0
  3
ISO dot . . . . . . . . . . . . . . . . . . . . 
 72
    65
 73
     2
 40
3.0
 49
0.0
 49
-3.0
  0
LTYPE
  2
ACAD_ISO08W100
 70
     0
  3
ISO long-dash short-dash ____ __ ____ __ ____ _
 72
    65
 73
     4
 40
36.0
 49
24.0
 49
-3.0
 49
6.0
 49
-3.0
  0
LTYPE
  2
ACAD_ISO09W100
 70
     0
  3
ISO long-dash double-short-dash ____ __ __ ____
 72
    65
 73
     6
 40
45.0
 49
24.0
 49
-3.0
 49
6.0
 49
-3.0
 49
6.0
 49
-3.0
  0
ENDTAB
  0
TABLE
  2
LAYER
 70
     1
  0
LAYER
  2
0
 70
     0
 62
     7
  6
CONTINUOUS
  0
ENDTAB
  0
TABLE
  2
STYLE
 70
     2
  0
STYLE
  2
STANDARD
 70
     0
 40
0.0
 41
1.0
 50
0.0
 71
     0
 42
0.2
  3
txt
  4

  0
STYLE
  2
QCADDIMTEXTSTYLE
 70
     0
 40
0.0
 41
1.0
 50
0.0
 71
     0
 42
0.2
  3

  4

  0
ENDTAB
  0
TABLE
  2
VIEW
 70
     0
  0
ENDTAB
  0
TABLE
  2
UCS
 70
     0
  0
ENDTAB
  0
TABLE
  2
APPID
 70
     2
  0
APPID
  2
ACAD
 70
     0
  0
APPID
  2
QCAD
 70
     0
  0
ENDTAB
  0
TABLE
  2
DIMSTYLE
 70
     2
  0
DIMSTYLE
  2
STANDARD
 70
     0
  3

  4

  5

  6

  7

 40
1.0
 41
0.18
 42
0.0625
 43
0.38
 44
0.18
 45
0.0
 46
0.0
 47
0.0
 48
0.0
140
0.18
141
0.09
142
0.0
143
25.4
144
1.0
145
0.0
146
1.0
147
0.09
 71
     0
 72
     0
 73
     1
 74
     1
 75
     0
 76
     0
 77
     0
 78
     0
170
     0
171
     2
172
     0
173
     0
174
     0
175
     0
176
     0
177
     0
178
     0
  0
DIMSTYLE
  2
QCADDIMSTYLE
 70
     0
  3

  4

  5

  6

  7

 40
1.0
 41
0.18
 42
0.0625
 43
0.38
 44
0.18
 45
0.0
 46
0.0
 47
0.0
 48
0.0
140
0.18
141
0.09
142
0.0
143
25.4
144
1.0
145
0.0
146
1.0
147
0.09
 71
     0
 72
     0
 73
     0
 74
     1
 75
     0
 76
     0
 77
     1
 78
     0
170
     0
171
     2
172
     0
173
     0
174
     0
175
     0
176
     0
177
     0
178
     0
  0
ENDTAB
  0
ENDSEC
  0
SECTION
  2
BLOCKS
  0
BLOCK
  8
0
  2
$MODEL_SPACE
 70
     0
 10
0.0
 20
0.0
 30
0.0
  3
$MODEL_SPACE
  1

  0
ENDBLK
  5
700
  8
0
  0
BLOCK
 67
     1
  8
0
  2
$PAPER_SPACE
 70
     0
 10
0.0
 20
0.0
 30
0.0
  3
$PAPER_SPACE
  1

  0
ENDBLK
  5
6FC
 67
     1
  8
0
  0
ENDSEC
  0
SECTION
  2
ENTITIES
  0
LINE
  5
40
  8
0
 62
     0
 10
343.708
 20
115.342
 30
0.0
 11
344.1
 21
115.328
 31
0.0
  0
LINE
  5
41
  8
0
 62
     0
 10
344.1
 20
115.328
 30
0.0
 11
344.49
 21
115.282
 31
0.0
  0
LINE
  5
42
  8
0
 62
     0
 10
344.49
 20
115.282
 30
0.0
 11
344.875
 21
115.204
 31
0.0
  0
LINE
  5
43
  8
0
 62
     0
 10
344.875
 20
115.204
 30
0.0
 11
345.252
 21
115.098
 31
0.0
  0
LINE
  5
44
  8
0
 62
     0
 10
345.252
 20
115.098
 30
0.0
 11
345.62
 21
114.961
 31
0.0
  0
LINE
  5
45
  8
0
 62
     0
 10
345.62
 20
114.961
 30
0.0
 11
345.977
 21
114.799
 31
0.0
  0
LINE
  5
46
  8
0
 62
     0
 10
345.977
 20
114.799
 30
0.0
 11
346.32
 21
114.607
 31
0.0
  0
LINE
  5
47
  8
0
 62
     0
 10
346.32
 20
114.607
 30
0.0
 11
346.647
 21
114.388
 31
0.0
  0
LINE
  5
48
  8
0
 62
     0
 10
346.647
 20
114.388
 30
0.0
 11
346.954
 21
114.146
 31
0.0
  0
LINE
  5
49
  8
0
 62
     0
 10
346.954
 20
114.146
 30
0.0
 11
347.244
 21
113.878
 31
0.0
  0
LINE
  5
4A
  8
0
 62
     0
 10
347.244
 20
113.878
 30
0.0
 11
347.509
 21
113.592
 31
0.0
  0
LINE
  5
4B
  8
0
 62
     0
 10
347.509
 20
113.592
 30
0.0
 11
347.752
 21
113.283
 31
0.0
  0
LINE
  5
4C
  8
0
 62
     0
 10
347.752
 20
113.283
 30
0.0
 11
347.971
 21
112.955
 31
0.0
  0
LINE
  5
4D
  8
0
 62
     0
 10
347.971
 20
112.955
 30
0.0
 11
348.163
 21
112.612
 31
0.0
  0
LINE
  5
4E
  8
0
 62
     0
 10
348.163
 20
112.612
 30
0.0
 11
348.327
 21
112.256
 31
0.0
  0
LINE
  5
4F
  8
0
 62
     0
 10
348.327
 20
112.256
 30
0.0
 11
348.463
 21
111.888
 31
0.0
  0
LINE
  5
50
  8
0
 62
     0
 10
348.463
 20
111.888
 30
0.0
 11
348.569
 21
111.51
 31
0.0
  0
LINE
  5
51
  8
0
 62
     0
 10
348.569
 20
111.51
 30
0.0
 11
348.646
 21
111.125
 31
0.0
  0
LINE
  5
52
  8
0
 62
     0
 10
348.646
 20
111.125
 30
0.0
 11
348.693
 21
110.735
 31
0.0
  0
LINE
  5
53
  8
0
 62
     0
 10
348.693
 20
110.735
 30
0.0
 11
348.708
 21
110.344
 31
0.0
  0
LINE
  5
54
  8
0
 62
     0
 10
348.708
 20
110.344
 30
0.0
 11
348.708
 21
5.09185
 31
0.0
  0
LINE
  5
55
  8
0
 62
     0
 10
348.708
 20
5.09185
 30
0.0
 11
348.693
 21
4.70048
 31
0.0
  0
LINE
  5
56
  8
0
 62
     0
 10
348.693
 20
4.70048
 30
0.0
 11
348.646
 21
4.30911
 31
0.0
  0
LINE
  5
57
  8
0
 62
     0
 10
348.646
 20
4.30911
 30
0.0
 11
348.569
 21
3.92465
 31
0.0
  0
LINE
  5
58
  8
0
 62
     0
 10
348.569
 20
3.92465
 30
0.0
 11
348.463
 21
3.5457
 31
0.0
  0
LINE
  5
59
  8
0
 62
     0
 10
348.463
 20
3.5457
 30
0.0
 11
348.327
 21
3.17776
 31
0.0
  0
LINE
  5
5A
  8
0
 62
     0
 10
348.327
 20
3.17776
 30
0.0
 11
348.163
 21
2.82222
 31
0.0
  0
LINE
  5
5B
  8
0
 62
     0
 10
348.163
 20
2.82222
 30
0.0
 11
347.971
 21
2.48047
 31
0.0
  0
LINE
  5
5C
  8
0
 62
     0
 10
347.971
 20
2.48047
 30
0.0
 11
347.752
 21
2.15249
 31
0.0
  0
LINE
  5
5D
  8
0
 62
     0
 10
347.752
 20
2.15249
 30
0.0
 11
347.509
 21
1.84381
 31
0.0
  0
LINE
  5
5E
  8
0
 62
     0
 10
347.509
 20
1.84381
 30
0.0
 11
347.244
 21
1.55718
 31
0.0
  0
LINE
  5
5F
  8
0
 62
     0
 10
347.244
 20
1.55718
 30
0.0
 11
346.954
 21
1.28984
 31
0.0
  0
LINE
  5
60
  8
0
 62
     0
 10
346.954
 20
1.28984
 30
0.0
 11
346.647
 21
1.04593
 31
0.0
  0
LINE
  5
61
  8
0
 62
     0
 10
346.647
 20
1.04593
 30
0.0
 11
346.32
 21
0.828202
 31
0.0
  0
LINE
  5
62
  8
0
 62
     0
 10
346.32
 20
0.828202
 30
0.0
 11
345.977
 21
0.636655
 31
0.0
  0
LINE
  5
63
  8
0
 62
     0
 10
345.977
 20
0.636655
 30
0.0
 11
345.62
 21
0.472666
 31
0.0
  0
LINE
  5
64
  8
0
 62
     0
 10
345.62
 20
0.472666
 30
0.0
 11
345.252
 21
0.336241
 31
0.0
  0
LINE
  5
65
  8
0
 62
     0
 10
345.252
 20
0.336241
 30
0.0
 11
344.875
 21
0.23151
 31
0.0
  0
LINE
  5
66
  8
0
 62
     0
 10
344.875
 20
0.23151
 30
0.0
 11
344.49
 21
0.152962
 31
0.0
  0
LINE
  5
67
  8
0
 62
     0
 10
344.49
 20
0.152962
 30
0.0
 11
344.1
 21
0.107487
 31
0.0
  0
LINE
  5
68
  8
0
 62
     0
 10
344.1
 20
0.107487
 30
0.0
 11
343.708
 21
0.0909507
 31
0.0
  0
LINE
  5
69
  8
0
 62
     0
 10
343.708
 20
0.0909507
 30
0.0
 11
5.0946
 21
0.0923286
 31
0.0
  0
LINE
  5
6A
  8
0
 62
     0
 10
5.0946
 20
0.0923286
 30
0.0
 11
4.70186
 21
0.107487
 31
0.0
  0
LINE
  5
6B
  8
0
 62
     0
 10
4.70186
 20
0.107487
 30
0.0
 11
4.3119
 21
0.152962
 31
0.0
  0
LINE
  5
6C
  8
0
 62
     0
 10
4.3119
 20
0.152962
 30
0.0
 11
3.9274
 21
0.23151
 31
0.0
  0
LINE
  5
6D
  8
0
 62
     0
 10
3.9274
 20
0.23151
 30
0.0
 11
3.54845
 21
0.336241
 31
0.0
  0
LINE
  5
6E
  8
0
 62
     0
 10
3.54845
 20
0.336241
 30
0.0
 11
3.18051
 21
0.472666
 31
0.0
  0
LINE
  5
6F
  8
0
 62
     0
 10
3.18051
 20
0.472666
 30
0.0
 11
2.82498
 21
0.636655
 31
0.0
  0
LINE
  5
70
  8
0
 62
     0
 10
2.82498
 20
0.636655
 30
0.0
 11
2.48185
 21
0.828202
 31
0.0
  0
LINE
  5
71
  8
0
 62
     0
 10
2.48185
 20
0.828202
 30
0.0
 11
2.15525
 21
1.04593
 31
0.0
  0
LINE
  5
72
  8
0
 62
     0
 10
2.15525
 20
1.04593
 30
0.0
 11
1.84657
 21
1.28984
 31
0.0
  0
LINE
  5
73
  8
0
 62
     0
 10
1.84657
 20
1.28984
 30
0.0
 11
1.55856
 21
1.55718
 31
0.0
  0
LINE
  5
74
  8
0
 62
     0
 10
1.55856
 20
1.55718
 30
0.0
 11
1.29122
 21
1.84381
 31
0.0
  0
LINE
  5
75
  8
0
 62
     0
 10
1.29122
 20
1.84381
 30
0.0
 11
1.04869
 21
2.15249
 31
0.0
  0
LINE
  5
76
  8
0
 62
     0
 10
1.04869
 20
2.15249
 30
0.0
 11
0.830957
 21
2.48047
 31
0.0
  0
LINE
  5
77
  8
0
 62
     0
 10
0.830957
 20
2.48047
 30
0.0
 11
0.63941
 21
2.82222
 31
0.0
  0
LINE
  5
78
  8
0
 62
     0
 10
0.63941
 20
2.82222
 30
0.0
 11
0.475424
 21
3.17776
 31
0.0
  0
LINE
  5
79
  8
0
 62
     0
 10
0.475424
 20
3.17776
 30
0.0
 11
0.338998
 21
3.5457
 31
0.0
  0
LINE
  5
7A
  8
0
 62
     0
 10
0.338998
 20
3.5457
 30
0.0
 11
0.232888
 21
3.92465
 31
0.0
  0
LINE
  5
7B
  8
0
 62
     0
 10
0.232888
 20
3.92465
 30
0.0
 11
0.155718
 21
4.30911
 31
0.0
  0
LINE
  5
7C
  8
0
 62
     0
 10
0.155718
 20
4.30911
 30
0.0
 11
0.110243
 21
4.70048
 31
0.0
  0
LINE
  5
7D
  8
0
 62
     0
 10
0.110243
 20
4.70048
 30
0.0
 11
0.0937066
 21
5.09185
 31
0.0
  0
LINE
  5
7E
  8
0
 62
     0
 10
0.0937066
 20
5.09185
 30
0.0
 11
0.0950846
 21
110.344
 31
0.0
  0
LINE
  5
7F
  8
0
 62
     0
 10
0.0950846
 20
110.344
 30
0.0
 11
0.110243
 21
110.735
 31
0.0
  0
LINE
  5
80
  8
0
 62
     0
 10
0.110243
 20
110.735
 30
0.0
 11
0.155718
 21
111.125
 31
0.0
  0
LINE
  5
81
  8
0
 62
     0
 10
0.155718
 20
111.125
 30
0.0
 11
0.232888
 21
111.51
 31
0.0
  0
LINE
  5
82
  8
0
 62
     0
 10
0.232888
 20
111.51
 30
0.0
 11
0.338998
 21
111.888
 31
0.0
  0
LINE
  5
83
  8
0
 62
     0
 10
0.338998
 20
111.888
 30
0.0
 11
0.475424
 21
112.256
 31
0.0
  0
LINE
  5
84
  8
0
 62
     0
 10
0.475424
 20
112.256
 30
0.0
 11
0.63941
 21
112.612
 31
0.0
  0
LINE
  5
85
  8
0
 62
     0
 10
0.63941
 20
112.612
 30
0.0
 11
0.830957
 21
112.955
 31
0.0
  0
LINE
  5
86
  8
0
 62
     0
 10
0.830957
 20
112.955
 30
0.0
 11
1.04869
 21
113.283
 31
0.0
  0
LINE
  5
87
  8
0
 62
     0
 10
1.04869
 20
113.283
 30
0.0
 11
1.29122
 21
113.592
 31
0.0
  0
LINE
  5
88
  8
0
 62
     0
 10
1.29122
 20
113.592
 30
0.0
 11
1.55856
 21
113.878
 31
0.0
  0
LINE
  5
89
  8
0
 62
     0
 10
1.55856
 20
113.878
 30
0.0
 11
1.84657
 21
114.146
 31
0.0
  0
LINE
  5
8A
  8
0
 62
     0
 10
1.84657
 20
114.146
 30
0.0
 11
2.15525
 21
114.388
 31
0.0
  0
LINE
  5
8B
  8
0
 62
     0
 10
2.15525
 20
114.388
 30
0.0
 11
2.48185
 21
114.607
 31
0.0
  0
LINE
  5
8C
  8
0
 62
     0
 10
2.48185
 20
114.607
 30
0.0
 11
2.82498
 21
114.799
 31
0.0
  0
LINE
  5
8D
  8
0
 62
     0
 10
2.82498
 20
114.799
 30
0.0
 11
3.18051
 21
114.961
 31
0.0
  0
LINE
  5
8E
  8
0
 62
     0
 10
3.18051
 20
114.961
 30
0.0
 11
3.54845
 21
115.098
 31
0.0
  0
LINE
  5
8F
  8
0
 62
     0
 10
3.54845
 20
115.098
 30
0.0
 11
3.9274
 21
115.204
 31
0.0
  0
LINE
  5
90
  8
0
 62
     0
 10
3.9274
 20
115.204
 30
0.0
 11
4.3119
 21
115.282
 31
0.0
  0
LINE
  5
91
  8
0
 62
     0
 10
4.3119
 20
115.282
 30
0.0
 11
4.70186
 21
115.328
 31
0.0
  0
LINE
  5
92
  8
0
 62
     0
 10
4.70186
 20
115.328
 30
0.0
 11
5.0946
 21
115.343
 31
0.0
  0
LINE
  5
93
  8
0
 62
     0
 10
5.0946
 20
115.343
 30
0.0
 11
343.708
 21
115.342
 31
0.0
  0
LINE
  5
94
  8
0
 62
     0
 10
343.167
 20
6.75792
 30
0.0
 11
342.678
 21
6.50847
 31
0.0
  0
LINE
  5
95
  8
0
 62
     0
 10
342.678
 20
6.50847
 30
0.0
 11
342.292
 21
6.11988
 31
0.0
  0
LINE
  5
96
  8
0
 62
     0
 10
342.292
 20
6.11988
 30
0.0
 11
342.044
 21
5.63203
 31
0.0
  0
LINE
  5
97
  8
0
 62
     0
 10
342.044
 20
5.63203
 30
0.0
 11
341.957
 21
5.09185
 31
0.0
  0
LINE
  5
98
  8
0
 62
     0
 10
341.957
 20
5.09185
 30
0.0
 11
342.044
 21
4.55306
 31
0.0
  0
LINE
  5
99
  8
0
 62
     0
 10
342.044
 20
4.55306
 30
0.0
 11
342.292
 21
4.06245
 31
0.0
  0
LINE
  5
9A
  8
0
 62
     0
 10
342.292
 20
4.06245
 30
0.0
 11
342.678
 21
3.67661
 31
0.0
  0
LINE
  5
9B
  8
0
 62
     0
 10
342.678
 20
3.67661
 30
0.0
 11
343.167
 21
3.42718
 31
0.0
  0
LINE
  5
9C
  8
0
 62
     0
 10
343.167
 20
3.42718
 30
0.0
 11
343.708
 21
3.34174
 31
0.0
  0
LINE
  5
9D
  8
0
 62
     0
 10
343.708
 20
3.34174
 30
0.0
 11
344.249
 21
3.42718
 31
0.0
  0
LINE
  5
9E
  8
0
 62
     0
 10
344.249
 20
3.42718
 30
0.0
 11
344.737
 21
3.67661
 31
0.0
  0
LINE
  5
9F
  8
0
 62
     0
 10
344.737
 20
3.67661
 30
0.0
 11
345.124
 21
4.06245
 31
0.0
  0
LINE
  5
A0
  8
0
 62
     0
 10
345.124
 20
4.06245
 30
0.0
 11
345.372
 21
4.55306
 31
0.0
  0
LINE
  5
A1
  8
0
 62
     0
 10
345.372
 20
4.55306
 30
0.0
 11
345.458
 21
5.09185
 31
0.0
  0
LINE
  5
A2
  8
0
 62
     0
 10
345.458
 20
5.09185
 30
0.0
 11
345.372
 21
5.63203
 31
0.0
  0
LINE
  5
A3
  8
0
 62
     0
 10
345.372
 20
5.63203
 30
0.0
 11
345.124
 21
6.11988
 31
0.0
  0
LINE
  5
A4
  8
0
 62
     0
 10
345.124
 20
6.11988
 30
0.0
 11
344.737
 21
6.50847
 31
0.0
  0
LINE
  5
A5
  8
0
 62
     0
 10
344.737
 20
6.50847
 30
0.0
 11
344.249
 21
6.75792
 31
0.0
  0
LINE
  5
A6
  8
0
 62
     0
 10
344.249
 20
6.75792
 30
0.0
 11
343.708
 21
6.84195
 31
0.0
  0
LINE
  5
A7
  8
0
 62
     0
 10
343.708
 20
6.84195
 30
0.0
 11
343.167
 21
6.75792
 31
0.0
  0
LINE
  5
A8
  8
0
 62
     0
 10
258.513
 20
6.75792
 30
0.0
 11
258.025
 21
6.50847
 31
0.0
  0
LINE
  5
A9
  8
0
 62
     0
 10
258.025
 20
6.50847
 30
0.0
 11
257.639
 21
6.11988
 31
0.0
  0
LINE
  5
AA
  8
0
 62
     0
 10
257.639
 20
6.11988
 30
0.0
 11
257.39
 21
5.63203
 31
0.0
  0
LINE
  5
AB
  8
0
 62
     0
 10
257.39
 20
5.63203
 30
0.0
 11
257.304
 21
5.09185
 31
0.0
  0
LINE
  5
AC
  8
0
 62
     0
 10
257.304
 20
5.09185
 30
0.0
 11
257.39
 21
4.55306
 31
0.0
  0
LINE
  5
AD
  8
0
 62
     0
 10
257.39
 20
4.55306
 30
0.0
 11
257.639
 21
4.06245
 31
0.0
  0
LINE
  5
AE
  8
0
 62
     0
 10
257.639
 20
4.06245
 30
0.0
 11
258.025
 21
3.67661
 31
0.0
  0
LINE
  5
AF
  8
0
 62
     0
 10
258.025
 20
3.67661
 30
0.0
 11
258.513
 21
3.42718
 31
0.0
  0
LINE
  5
B0
  8
0
 62
     0
 10
258.513
 20
3.42718
 30
0.0
 11
259.055
 21
3.34174
 31
0.0
  0
LINE
  5
B1
  8
0
 62
     0
 10
259.055
 20
3.34174
 30
0.0
 11
259.595
 21
3.42718
 31
0.0
  0
LINE
  5
B2
  8
0
 62
     0
 10
259.595
 20
3.42718
 30
0.0
 11
260.083
 21
3.67661
 31
0.0
  0
LINE
  5
B3
  8
0
 62
     0
 10
260.083
 20
3.67661
 30
0.0
 11
260.47
 21
4.06245
 31
0.0
  0
LINE
  5
B4
  8
0
 62
     0
 10
260.47
 20
4.06245
 30
0.0
 11
260.719
 21
4.55306
 31
0.0
  0
LINE
  5
B5
  8
0
 62
     0
 10
260.719
 20
4.55306
 30
0.0
 11
260.805
 21
5.09185
 31
0.0
  0
LINE
  5
B6
  8
0
 62
     0
 10
260.805
 20
5.09185
 30
0.0
 11
260.719
 21
5.63203
 31
0.0
  0
LINE
  5
B7
  8
0
 62
     0
 10
260.719
 20
5.63203
 30
0.0
 11
260.47
 21
6.11988
 31
0.0
  0
LINE
  5
B8
  8
0
 62
     0
 10
260.47
 20
6.11988
 30
0.0
 11
260.083
 21
6.50847
 31
0.0
  0
LINE
  5
B9
  8
0
 62
     0
 10
260.083
 20
6.50847
 30
0.0
 11
259.595
 21
6.75792
 31
0.0
  0
LINE
  5
BA
  8
0
 62
     0
 10
259.595
 20
6.75792
 30
0.0
 11
259.055
 21
6.84195
 31
0.0
  0
LINE
  5
BB
  8
0
 62
     0
 10
259.055
 20
6.84195
 30
0.0
 11
258.513
 21
6.75792
 31
0.0
  0
LINE
  5
BC
  8
0
 62
     0
 10
173.86
 20
6.75792
 30
0.0
 11
173.372
 21
6.50847
 31
0.0
  0
LINE
  5
BD
  8
0
 62
     0
 10
173.372
 20
6.50847
 30
0.0
 11
172.985
 21
6.11988
 31
0.0
  0
LINE
  5
BE
  8
0
 62
     0
 10
172.985
 20
6.11988
 30
0.0
 11
172.737
 21
5.63203
 31
0.0
  0
LINE
  5
BF
  8
0
 62
     0
 10
172.737
 20
5.63203
 30
0.0
 11
172.65
 21
5.09185
 31
0.0
  0
LINE
  5
C0
  8
0
 62
     0
 10
172.65
 20
5.09185
 30
0.0
 11
172.737
 21
4.55306
 31
0.0
  0
LINE
  5
C1
  8
0
 62
     0
 10
172.737
 20
4.55306
 30
0.0
 11
172.985
 21
4.06245
 31
0.0
  0
LINE
  5
C2
  8
0
 62
     0
 10
172.985
 20
4.06245
 30
0.0
 11
173.372
 21
3.67661
 31
0.0
  0
LINE
  5
C3
  8
0
 62
     0
 10
173.372
 20
3.67661
 30
0.0
 11
173.86
 21
3.42718
 31
0.0
  0
LINE
  5
C4
  8
0
 62
     0
 10
173.86
 20
3.42718
 30
0.0
 11
174.4
 21
3.34174
 31
0.0
  0
LINE
  5
C5
  8
0
 62
     0
 10
174.4
 20
3.34174
 30
0.0
 11
174.942
 21
3.42718
 31
0.0
  0
LINE
  5
C6
  8
0
 62
     0
 10
174.942
 20
3.42718
 30
0.0
 11
175.43
 21
3.67661
 31
0.0
  0
LINE
  5
C7
  8
0
 62
     0
 10
175.43
 20
3.67661
 30
0.0
 11
175.817
 21
4.06245
 31
0.0
  0
LINE
  5
C8
  8
0
 62
     0
 10
175.817
 20
4.06245
 30
0.0
 11
176.066
 21
4.55306
 31
0.0
  0
LINE
  5
C9
  8
0
 62
     0
 10
176.066
 20
4.55306
 30
0.0
 11
176.15
 21
5.09185
 31
0.0
  0
LINE
  5
CA
  8
0
 62
     0
 10
176.15
 20
5.09185
 30
0.0
 11
176.066
 21
5.63203
 31
0.0
  0
LINE
  5
CB
  8
0
 62
     0
 10
176.066
 20
5.63203
 30
0.0
 11
175.817
 21
6.11988
 31
0.0
  0
LINE
  5
CC
  8
0
 62
     0
 10
175.817
 20
6.11988
 30
0.0
 11
175.43
 21
6.50847
 31
0.0
  0
LINE
  5
CD
  8
0
 62
     0
 10
175.43
 20
6.50847
 30
0.0
 11
174.942
 21
6.75792
 31
0.0
  0
LINE
  5
CE
  8
0
 62
     0
 10
174.942
 20
6.75792
 30
0.0
 11
174.4
 21
6.84195
 31
0.0
  0
LINE
  5
CF
  8
0
 62
     0
 10
174.4
 20
6.84195
 30
0.0
 11
173.86
 21
6.75792
 31
0.0
  0
LINE
  5
D0
  8
0
 62
     0
 10
89.2073
 20
6.75792
 30
0.0
 11
88.718
 21
6.50847
 31
0.0
  0
LINE
  5
D1
  8
0
 62
     0
 10
88.718
 20
6.50847
 30
0.0
 11
88.3324
 21
6.11988
 31
0.0
  0
LINE
  5
D2
  8
0
 62
     0
 10
88.3324
 20
6.11988
 30
0.0
 11
88.0844
 21
5.63203
 31
0.0
  0
LINE
  5
D3
  8
0
 62
     0
 10
88.0844
 20
5.63203
 30
0.0
 11
87.9972
 21
5.09185
 31
0.0
  0
LINE
  5
D4
  8
0
 62
     0
 10
87.9972
 20
5.09185
 30
0.0
 11
88.0844
 21
4.55306
 31
0.0
  0
LINE
  5
D5
  8
0
 62
     0
 10
88.0844
 20
4.55306
 30
0.0
 11
88.3324
 21
4.06245
 31
0.0
  0
LINE
  5
D6
  8
0
 62
     0
 10
88.3324
 20
4.06245
 30
0.0
 11
88.718
 21
3.67661
 31
0.0
  0
LINE
  5
D7
  8
0
 62
     0
 10
88.718
 20
3.67661
 30
0.0
 11
89.2073
 21
3.42718
 31
0.0
  0
LINE
  5
D8
  8
0
 62
     0
 10
89.2073
 20
3.42718
 30
0.0
 11
89.7474
 21
3.34174
 31
0.0
  0
LINE
  5
D9
  8
0
 62
     0
 10
89.7474
 20
3.34174
 30
0.0
 11
90.2892
 21
3.42718
 31
0.0
  0
LINE
  5
DA
  8
0
 62
     0
 10
90.2892
 20
3.42718
 30
0.0
 11
90.7754
 21
3.67661
 31
0.0
  0
LINE
  5
DB
  8
0
 62
     0
 10
90.7754
 20
3.67661
 30
0.0
 11
91.1641
 21
4.06245
 31
0.0
  0
LINE
  5
DC
  8
0
 62
     0
 10
91.1641
 20
4.06245
 30
0.0
 11
91.4121
 21
4.55306
 31
0.0
  0
LINE
  5
DD
  8
0
 62
     0
 10
91.4121
 20
4.55306
 30
0.0
 11
91.4975
 21
5.09185
 31
0.0
  0
LINE
  5
DE
  8
0
 62
     0
 10
91.4975
 20
5.09185
 30
0.0
 11
91.4121
 21
5.63203
 31
0.0
  0
LINE
  5
DF
  8
0
 62
     0
 10
91.4121
 20
5.63203
 30
0.0
 11
91.1641
 21
6.11988
 31
0.0
  0
LINE
  5
E0
  8
0
 62
     0
 10
91.1641
 20
6.11988
 30
0.0
 11
90.7754
 21
6.50847
 31
0.0
  0
LINE
  5
E1
  8
0
 62
     0
 10
90.7754
 20
6.50847
 30
0.0
 11
90.2892
 21
6.75792
 31
0.0
  0
LINE
  5
E2
  8
0
 62
     0
 10
90.2892
 20
6.75792
 30
0.0
 11
89.7474
 21
6.84195
 31
0.0
  0
LINE
  5
E3
  8
0
 62
     0
 10
89.7474
 20
6.84195
 30
0.0
 11
89.2073
 21
6.75792
 31
0.0
  0
LINE
  5
E4
  8
0
 62
     0
 10
4.55443
 20
6.75792
 30
0.0
 11
4.0652
 21
6.50847
 31
0.0
  0
LINE
  5
E5
  8
0
 62
     0
 10
4.0652
 20
6.50847
 30
0.0
 11
3.67937
 21
6.11988
 31
0.0
  0
LINE
  5
E6
  8
0
 62
     0
 10
3.67937
 20
6.11988
 30
0.0
 11
3.42994
 21
5.63203
 31
0.0
  0
LINE
  5
E7
  8
0
 62
     0
 10
3.42994
 20
5.63203
 30
0.0
 11
3.34312
 21
5.09185
 31
0.0
  0
LINE
  5
E8
  8
0
 62
     0
 10
3.34312
 20
5.09185
 30
0.0
 11
3.42994
 21
4.55306
 31
0.0
  0
LINE
  5
E9
  8
0
 62
     0
 10
3.42994
 20
4.55306
 30
0.0
 11
3.67937
 21
4.06245
 31
0.0
  0
LINE
  5
EA
  8
0
 62
     0
 10
3.67937
 20
4.06245
 30
0.0
 11
4.0652
 21
3.67661
 31
0.0
  0
LINE
  5
EB
  8
0
 62
     0
 10
4.0652
 20
3.67661
 30
0.0
 11
4.55443
 21
3.42718
 31
0.0
  0
LINE
  5
EC
  8
0
 62
     0
 10
4.55443
 20
3.42718
 30
0.0
 11
5.09323
 21
3.34174
 31
0.0
  0
LINE
  5
ED
  8
0
 62
     0
 10
5.09323
 20
3.34174
 30
0.0
 11
5.63481
 21
3.42718
 31
0.0
  0
LINE
  5
EE
  8
0
 62
     0
 10
5.63481
 20
3.42718
 30
0.0
 11
6.12263
 21
3.67661
 31
0.0
  0
LINE
  5
EF
  8
0
 62
     0
 10
6.12263
 20
3.67661
 30
0.0
 11
6.50984
 21
4.06245
 31
0.0
  0
LINE
  5
F0
  8
0
 62
     0
 10
6.50984
 20
4.06245
 30
0.0
 11
6.75929
 21
4.55306
 31
0.0
  0
LINE
  5
F1
  8
0
 62
     0
 10
6.75929
 20
4.55306
 30
0.0
 11
6.84332
 21
5.09185
 31
0.0
  0
LINE
  5
F2
  8
0
 62
     0
 10
6.84332
 20
5.09185
 30
0.0
 11
6.75929
 21
5.63203
 31
0.0
  0
LINE
  5
F3
  8
0
 62
     0
 10
6.75929
 20
5.63203
 30
0.0
 11
6.50984
 21
6.11988
 31
0.0
  0
LINE
  5
F4
  8
0
 62
     0
 10
6.50984
 20
6.11988
 30
0.0
 11
6.12263
 21
6.50847
 31
0.0
  0
LINE
  5
F5
  8
0
 62
     0
 10
6.12263
 20
6.50847
 30
0.0
 11
5.63481
 21
6.75792
 31
0.0
  0
LINE
  5
F6
  8
0
 62
     0
 10
5.63481
 20
6.75792
 30
0.0
 11
5.09323
 21
6.84195
 31
0.0
  0
LINE
  5
F7
  8
0
 62
     0
 10
5.09323
 20
6.84195
 30
0.0
 11
4.55443
 21
6.75792
 31
0.0
  0
LINE
  5
F8
  8
0
 62
     0
 10
89.2073
 20
112.007
 30
0.0
 11
88.718
 21
111.758
 31
0.0
  0
LINE
  5
F9
  8
0
 62
     0
 10
88.718
 20
111.758
 30
0.0
 11
88.3324
 21
111.373
 31
0.0
  0
LINE
  5
FA
  8
0
 62
     0
 10
88.3324
 20
111.373
 30
0.0
 11
88.0844
 21
110.883
 31
0.0
  0
LINE
  5
FB
  8
0
 62
     0
 10
88.0844
 20
110.883
 30
0.0
 11
87.9972
 21
110.344
 31
0.0
  0
LINE
  5
FC
  8
0
 62
     0
 10
87.9972
 20
110.344
 30
0.0
 11
88.0844
 21
109.802
 31
0.0
  0
LINE
  5
FD
  8
0
 62
     0
 10
88.0844
 20
109.802
 30
0.0
 11
88.3324
 21
109.316
 31
0.0
  0
LINE
  5
FE
  8
0
 62
     0
 10
88.3324
 20
109.316
 30
0.0
 11
88.718
 21
108.927
 31
0.0
  0
LINE
  5
FF
  8
0
 62
     0
 10
88.718
 20
108.927
 30
0.0
 11
89.2073
 21
108.678
 31
0.0
  0
LINE
  5
100
  8
0
 62
     0
 10
89.2073
 20
108.678
 30
0.0
 11
89.7474
 21
108.593
 31
0.0
  0
LINE
  5
101
  8
0
 62
     0
 10
89.7474
 20
108.593
 30
0.0
 11
90.2892
 21
108.678
 31
0.0
  0
LINE
  5
102
  8
0
 62
     0
 10
90.2892
 20
108.678
 30
0.0
 11
90.7754
 21
108.927
 31
0.0
  0
LINE
  5
103
  8
0
 62
     0
 10
90.7754
 20
108.927
 30
0.0
 11
91.1641
 21
109.316
 31
0.0
  0
LINE
  5
104
  8
0
 62
     0
 10
91.1641
 20
109.316
 30
0.0
 11
91.4121
 21
109.802
 31
0.0
  0
LINE
  5
105
  8
0
 62
     0
 10
91.4121
 20
109.802
 30
0.0
 11
91.4975
 21
110.344
 31
0.0
  0
LINE
  5
106
  8
0
 62
     0
 10
91.4975
 20
110.344
 30
0.0
 11
91.4121
 21
110.883
 31
0.0
  0
LINE
  5
107
  8
0
 62
     0
 10
91.4121
 20
110.883
 30
0.0
 11
91.1641
 21
111.373
 31
0.0
  0
LINE
  5
108
  8
0
 62
     0
 10
91.1641
 20
111.373
 30
0.0
 11
90.7754
 21
111.758
 31
0.0
  0
LINE
  5
109
  8
0
 62
     0
 10
90.7754
 20
111.758
 30
0.0
 11
90.2892
 21
112.007
 31
0.0
  0
LINE
  5
10A
  8
0
 62
     0
 10
90.2892
 20
112.007
 30
0.0
 11
89.7474
 21
112.094
 31
0.0
  0
LINE
  5
10B
  8
0
 62
     0
 10
89.7474
 20
112.094
 30
0.0
 11
89.2073
 21
112.007
 31
0.0
  0
LINE
  5
10C
  8
0
 62
     0
 10
173.86
 20
112.007
 30
0.0
 11
173.372
 21
111.758
 31
0.0
  0
LINE
  5
10D
  8
0
 62
     0
 10
173.372
 20
111.758
 30
0.0
 11
172.985
 21
111.373
 31
0.0
  0
LINE
  5
10E
  8
0
 62
     0
 10
172.985
 20
111.373
 30
0.0
 11
172.737
 21
110.883
 31
0.0
  0
LINE
  5
10F
  8
0
 62
     0
 10
172.737
 20
110.883
 30
0.0
 11
172.65
 21
110.344
 31
0.0
  0
LINE
  5
110
  8
0
 62
     0
 10
172.65
 20
110.344
 30
0.0
 11
172.737
 21
109.802
 31
0.0
  0
LINE
  5
111
  8
0
 62
     0
 10
172.737
 20
109.802
 30
0.0
 11
172.985
 21
109.316
 31
0.0
  0
LINE
  5
112
  8
0
 62
     0
 10
172.985
 20
109.316
 30
0.0
 11
173.372
 21
108.927
 31
0.0
  0
LINE
  5
113
  8
0
 62
     0
 10
173.372
 20
108.927
 30
0.0
 11
173.86
 21
108.678
 31
0.0
  0
LINE
  5
114
  8
0
 62
     0
 10
173.86
 20
108.678
 30
0.0
 11
174.4
 21
108.593
 31
0.0
  0
LINE
  5
115
  8
0
 62
     0
 10
174.4
 20
108.593
 30
0.0
 11
174.942
 21
108.678
 31
0.0
  0
LINE
  5
116
  8
0
 62
     0
 10
174.942
 20
108.678
 30
0.0
 11
175.43
 21
108.927
 31
0.0
  0
LINE
  5
117
  8
0
 62
     0
 10
175.43
 20
108.927
 30
0.0
 11
175.817
 21
109.316
 31
0.0
  0
LINE
  5
118
  8
0
 62
     0
 10
175.817
 20
109.316
 30
0.0
 11
176.066
 21
109.802
 31
0.0
  0
LINE
  5
119
  8
0
 62
     0
 10
176.066
 20
109.802
 30
0.0
 11
176.15
 21
110.344
 31
0.0
  0
LINE
  5
11A
  8
0
 62
     0
 10
176.15
 20
110.344
 30
0.0
 11
176.066
 21
110.883
 31
0.0
  0
LINE
  5
11B
  8
0
 62
     0
 10
176.066
 20
110.883
 30
0.0
 11
175.817
 21
111.373
 31
0.0
  0
LINE
  5
11C
  8
0
 62
     0
 10
175.817
 20
111.373
 30
0.0
 11
175.43
 21
111.758
 31
0.0
  0
LINE
  5
11D
  8
0
 62
     0
 10
175.43
 20
111.758
 30
0.0
 11
174.942
 21
112.007
 31
0.0
  0
LINE
  5
11E
  8
0
 62
     0
 10
174.942
 20
112.007
 30
0.0
 11
174.4
 21
112.094
 31
0.0
  0
LINE
  5
11F
  8
0
 62
     0
 10
174.4
 20
112.094
 30
0.0
 11
173.86
 21
112.007
 31
0.0
  0
LINE
  5
120
  8
0
 62
     0
 10
258.513
 20
112.007
 30
0.0
 11
258.025
 21
111.758
 31
0.0
  0
LINE
  5
121
  8
0
 62
     0
 10
258.025
 20
111.758
 30
0.0
 11
257.639
 21
111.373
 31
0.0
  0
LINE
  5
122
  8
0
 62
     0
 10
257.639
 20
111.373
 30
0.0
 11
257.39
 21
110.883
 31
0.0
  0
LINE
  5
123
  8
0
 62
     0
 10
257.39
 20
110.883
 30
0.0
 11
257.304
 21
110.344
 31
0.0
  0
LINE
  5
124
  8
0
 62
     0
 10
257.304
 20
110.344
 30
0.0
 11
257.39
 21
109.802
 31
0.0
  0
LINE
  5
125
  8
0
 62
     0
 10
257.39
 20
109.802
 30
0.0
 11
257.639
 21
109.316
 31
0.0
  0
LINE
  5
126
  8
0
 62
     0
 10
257.639
 20
109.316
 30
0.0
 11
258.025
 21
108.927
 31
0.0
  0
LINE
  5
127
  8
0
 62
     0
 10
258.025
 20
108.927
 30
0.0
 11
258.513
 21
108.678
 31
0.0
  0
LINE
  5
128
  8
0
 62
     0
 10
258.513
 20
108.678
 30
0.0
 11
259.055
 21
108.593
 31
0.0
  0
LINE
  5
129
  8
0
 62
     0
 10
259.055
 20
108.593
 30
0.0
 11
259.595
 21
108.678
 31
0.0
  0
LINE
  5
12A
  8
0
 62
     0
 10
259.595
 20
108.678
 30
0.0
 11
260.083
 21
108.927
 31
0.0
  0
LINE
  5
12B
  8
0
 62
     0
 10
260.083
 20
108.927
 30
0.0
 11
260.47
 21
109.316
 31
0.0
  0
LINE
  5
12C
  8
0
 62
     0
 10
260.47
 20
109.316
 30
0.0
 11
260.719
 21
109.802
 31
0.0
  0
LINE
  5
12D
  8
0
 62
     0
 10
260.719
 20
109.802
 30
0.0
 11
260.805
 21
110.344
 31
0.0
  0
LINE
  5
12E
  8
0
 62
     0
 10
260.805
 20
110.344
 30
0.0
 11
260.719
 21
110.883
 31
0.0
  0
LINE
  5
12F
  8
0
 62
     0
 10
260.719
 20
110.883
 30
0.0
 11
260.47
 21
111.373
 31
0.0
  0
LINE
  5
130
  8
0
 62
     0
 10
260.47
 20
111.373
 30
0.0
 11
260.083
 21
111.758
 31
0.0
  0
LINE
  5
131
  8
0
 62
     0
 10
260.083
 20
111.758
 30
0.0
 11
259.595
 21
112.007
 31
0.0
  0
LINE
  5
132
  8
0
 62
     0
 10
259.595
 20
112.007
 30
0.0
 11
259.055
 21
112.094
 31
0.0
  0
LINE
  5
133
  8
0
 62
     0
 10
259.055
 20
112.094
 30
0.0
 11
258.513
 21
112.007
 31
0.0
  0
LINE
  5
134
  8
0
 62
     0
 10
343.167
 20
112.007
 30
0.0
 11
342.678
 21
111.758
 31
0.0
  0
LINE
  5
135
  8
0
 62
     0
 10
342.678
 20
111.758
 30
0.0
 11
342.292
 21
111.373
 31
0.0
  0
LINE
  5
136
  8
0
 62
     0
 10
342.292
 20
111.373
 30
0.0
 11
342.044
 21
110.883
 31
0.0
  0
LINE
  5
137
  8
0
 62
     0
 10
342.044
 20
110.883
 30
0.0
 11
341.957
 21
110.344
 31
0.0
  0
LINE
  5
138
  8
0
 62
     0
 10
341.957
 20
110.344
 30
0.0
 11
342.044
 21
109.802
 31
0.0
  0
LINE
  5
139
  8
0
 62
     0
 10
342.044
 20
109.802
 30
0.0
 11
342.292
 21
109.316
 31
0.0
  0
LINE
  5
13A
  8
0
 62
     0
 10
342.292
 20
109.316
 30
0.0
 11
342.678
 21
108.927
 31
0.0
  0
LINE
  5
13B
  8
0
 62
     0
 10
342.678
 20
108.927
 30
0.0
 11
343.167
 21
108.678
 31
0.0
  0
LINE
  5
13C
  8
0
 62
     0
 10
343.167
 20
108.678
 30
0.0
 11
343.708
 21
108.593
 31
0.0
  0
LINE
  5
13D
  8
0
 62
     0
 10
343.708
 20
108.593
 30
0.0
 11
344.249
 21
108.678
 31
0.0
  0
LINE
  5
13E
  8
0
 62
     0
 10
344.249
 20
108.678
 30
0.0
 11
344.737
 21
108.927
 31
0.0
  0
LINE
  5
13F
  8
0
 62
     0
 10
344.737
 20
108.927
 30
0.0
 11
345.124
 21
109.316
 31
0.0
  0
LINE
  5
140
  8
0
 62
     0
 10
345.124
 20
109.316
 30
0.0
 11
345.372
 21
109.802
 31
0.0
  0
LINE
  5
141
  8
0
 62
     0
 10
345.372
 20
109.802
 30
0.0
 11
345.458
 21
110.344
 31
0.0
  0
LINE
  5
142
  8
0
 62
     0
 10
345.458
 20
110.344
 30
0.0
 11
345.372
 21
110.883
 31
0.0
  0
LINE
  5
143
  8
0
 62
     0
 10
345.372
 20
110.883
 30
0.0
 11
345.124
 21
111.373
 31
0.0
  0
LINE
  5
144
  8
0
 62
     0
 10
345.124
 20
111.373
 30
0.0
 11
344.737
 21
111.758
 31
0.0
  0
LINE
  5
145
  8
0
 62
     0
 10
344.737
 20
111.758
 30
0.0
 11
344.249
 21
112.007
 31
0.0
  0
LINE
  5
146
  8
0
 62
     0
 10
344.249
 20
112.007
 30
0.0
 11
343.708
 21
112.094
 31
0.0
  0
LINE
  5
147
  8
0
 62
     0
 10
343.708
 20
112.094
 30
0.0
 11
343.167
 21
112.007
 31
0.0
  0
LINE
  5
148
  8
0
 62
     0
 10
4.55443
 20
112.007
 30
0.0
 11
4.0652
 21
111.758
 31
0.0
  0
LINE
  5
149
  8
0
 62
     0
 10
4.0652
 20
111.758
 30
0.0
 11
3.67937
 21
111.373
 31
0.0
  0
LINE
  5
14A
  8
0
 62
     0
 10
3.67937
 20
111.373
 30
0.0
 11
3.42994
 21
110.883
 31
0.0
  0
LINE
  5
14B
  8
0
 62
     0
 10
3.42994
 20
110.883
 30
0.0
 11
3.34312
 21
110.344
 31
0.0
  0
LINE
  5
14C
  8
0
 62
     0
 10
3.34312
 20
110.344
 30
0.0
 11
3.42994
 21
109.802
 31
0.0
  0
LINE
  5
14D
  8
0
 62
     0
 10
3.42994
 20
109.802
 30
0.0
 11
3.67937
 21
109.316
 31
0.0
  0
LINE
  5
14E
  8
0
 62
     0
 10
3.67937
 20
109.316
 30
0.0
 11
4.0652
 21
108.927
 31
0.0
  0
LINE
  5
14F
  8
0
 62
     0
 10
4.0652
 20
108.927
 30
0.0
 11
4.55443
 21
108.678
 31
0.0
  0
LINE
  5
150
  8
0
 62
     0
 10
4.55443
 20
108.678
 30
0.0
 11
5.09323
 21
108.593
 31
0.0
  0
LINE
  5
151
  8
0
 62
     0
 10
5.09323
 20
108.593
 30
0.0
 11
5.63481
 21
108.678
 31
0.0
  0
LINE
  5
152
  8
0
 62
     0
 10
5.63481
 20
108.678
 30
0.0
 11
6.12263
 21
108.927
 31
0.0
  0
LINE
  5
153
  8
0
 62
     0
 10
6.12263
 20
108.927
 30
0.0
 11
6.50984
 21
109.316
 31
0.0
  0
LINE
  5
154
  8
0
 62
     0
 10
6.50984
 20
109.316
 30
0.0
 11
6.75929
 21
109.802
 31
0.0
  0
LINE
  5
155
  8
0
 62
     0
 10
6.75929
 20
109.802
 30
0.0
 11
6.84332
 21
110.344
 31
0.0
  0
LINE
  5
156
  8
0
 62
     0
 10
6.84332
 20
110.344
 30
0.0
 11
6.75929
 21
110.883
 31
0.0
  0
LINE
  5
157
  8
0
 62
     0
 10
6.75929
 20
110.883
 30
0.0
 11
6.50984
 21
111.373
 31
0.0
  0
LINE
  5
158
  8
0
 62
     0
 10
6.50984
 20
111.373
 30
0.0
 11
6.12263
 21
111.758
 31
0.0
  0
LINE
  5
159
  8
0
 62
     0
 10
6.12263
 20
111.758
 30
0.0
 11
5.63481
 21
112.007
 31
0.0
  0
LINE
  5
15A
  8
0
 62
     0
 10
5.63481
 20
112.007
 30
0.0
 11
5.09323
 21
112.094
 31
0.0
  0
LINE
  5
15B
  8
0
 62
     0
 10
5.09323
 20
112.094
 30
0.0
 11
4.55443
 21
112.007
 31
0.0
  0
POLYLINE
  5
531
  8
0
 66
     1
 10
0.0
 20
0.0
 30
0.0
 70
   129
  0
VERTEX
  5
7AF
  8
0
 10
86.81905884622358
 20
43.97455331180126
 30
0.0
  0
VERTEX
  5
7B0
  8
0
 10
97.09721352736335
 20
43.97455331180126
 30
0.0
  0
VERTEX
  5
7B1
  8
0
 10
97.09721352736335
 20
33.86600514355159
 30
0.0
  0
VERTEX
  5
7B2
  8
0
 10
86.81905884622358
 20
33.86600514355159
 30
0.0
  0
SEQEND
  5
838
  8
0
  0
POLYLINE
  5
532
  8
0
 66
     1
 10
0.0
 20
0.0
 30
0.0
 70
   129
  0
VERTEX
  5
7B3
  8
0
 10
126.6752325232928
 20
71.7900214257769
 30
0.0
 42
-0.1013943759773723
  0
VERTEX
  5
7B4
  8
0
 10
132.8997915463593
 20
70.60277583554617
 30
0.0
 42
-0.1370380553180573
  0
VERTEX
  5
7B5
  8
0
 10
137.4961280456808
 20
66.97319645969813
 30
0.0
 42
-0.1222908684153656
  0
VERTEX
  5
7B6
  8
0
 10
139.3617996874719
 20
62.71607298615675
 30
0.0
 42
-0.026592240810807
  0
VERTEX
  5
7B7
  8
0
 10
139.5836568731867
 20
60.5191056389086
 30
0.0
 42
-0.0118681194695096
  0
VERTEX
  5
7B8
  8
0
 10
139.7010127132521
 20
55.57563879348387
 30
0.0
  0
VERTEX
  5
7B9
  8
0
 10
139.7010127132521
 20
33.86600514355159
 30
0.0
  0
VERTEX
  5
7BA
  8
0
 10
129.8299136630486
 20
33.86600514355159
 30
0.0
  0
VERTEX
  5
7BB
  8
0
 10
129.8299136630486
 20
56.35582875277819
 30
0.0
 42
0.0211922746067737
  0
VERTEX
  5
7BC
  8
0
 10
129.7725910473904
 20
57.70766267381613
 30
0.0
 42
0.0252798986167887
  0
VERTEX
  5
7BD
  8
0
 10
129.619557218784
 20
58.83177706200183
 30
0.0
 42
0.0365755424895976
  0
VERTEX
  5
7BE
  8
0
 10
129.2730563427901
 20
60.13971189396187
 30
0.0
 42
0.0437797002631514
  0
VERTEX
  5
7BF
  8
0
 10
128.812274585708
 20
61.17265371885691
 30
0.0
 42
0.083007433060714
  0
VERTEX
  5
7C0
  8
0
 10
127.9205016669555
 20
62.37101414035794
 30
0.0
 42
0.0841452190917009
  0
VERTEX
  5
7C1
  8
0
 10
126.7020206281864
 20
63.20018015426407
 30
0.0
 42
0.0607396830392078
  0
VERTEX
  5
7C2
  8
0
 10
125.4662405102928
 20
63.59370230666795
 30
0.0
 42
0.0467733520772935
  0
VERTEX
  5
7C3
  8
0
 10
123.7919218041612
 20
63.75067271478633
 30
0.0
 42
0.0444283644355502
  0
VERTEX
  5
7C4
  8
0
 10
122.0003144034231
 20
63.59116148577995
 30
0.0
 42
0.0534410088010884
  0
VERTEX
  5
7C5
  8
0
 10
120.5637586877779
 20
63.17125715460811
 30
0.0
 42
0.0656111299449951
  0
VERTEX
  5
7C6
  8
0
 10
119.1487722727169
 20
62.35696630523204
 30
0.0
 42
0.0646807873951862
  0
VERTEX
  5
7C7
  8
0
 10
117.9744184120309
 20
61.18961437014588
 30
0.0
 42
0.0581904725517831
  0
VERTEX
  5
7C8
  8
0
 10
117.0695009461649
 20
59.69005594797878
 30
0.0
 42
0.0485692272111014
  0
VERTEX
  5
7C9
  8
0
 10
116.3909323434605
 20
57.70667941133993
 30
0.0
 42
0.0320629321525274
  0
VERTEX
  5
7CA
  8
0
 10
116.1008446917558
 20
56.00119499760372
 30
0.0
 42
0.0260996125168209
  0
VERTEX
  5
7CB
  8
0
 10
115.9900222112168
 20
53.87957366458304
 30
0.0
  0
VERTEX
  5
7CC
  8
0
 10
115.9900222112168
 20
33.86600514355159
 30
0.0
  0
VERTEX
  5
7CD
  8
0
 10
106.3563722790594
 20
33.86600514355159
 30
0.0
  0
VERTEX
  5
7CE
  8
0
 10
106.3563722790594
 20
83.69639863066149
 30
0.0
  0
VERTEX
  5
7CF
  8
0
 10
115.9900222112168
 20
83.69639863066149
 30
0.0
  0
VERTEX
  5
7D0
  8
0
 10
115.9900222112168
 20
66.02339998751361
 30
0.0
 42
-0.026676051381207
  0
VERTEX
  5
7D1
  8
0
 10
117.0512133903405
 20
67.4740848659055
 30
0.0
 42
-0.0307658655202227
  0
VERTEX
  5
7D2
  8
0
 10
118.1096709628378
 20
68.6184611675001
 30
0.0
 42
-0.0395358613455131
  0
VERTEX
  5
7D3
  8
0
 10
119.4694968279641
 20
69.72676143683326
 30
0.0
 42
-0.043419421844697
  0
VERTEX
  5
7D4
  8
0
 10
120.8577291311625
 20
70.51797257910113
 30
0.0
 42
-0.1095122192268204
  0
SEQEND
  5
839
  8
0
  0
POLYLINE
  5
533
  8
0
 66
     1
 10
0.0
 20
0.0
 30
0.0
 70
   129
  0
VERTEX
  5
7D5
  8
0
 10
144.9208227539577
 20
63.61498750447426
 30
0.0
  0
VERTEX
  5
7D6
  8
0
 10
144.9208227539577
 20
70.5010119278121
 30
0.0
  0
VERTEX
  5
7D7
  8
0
 10
150.0768607458165
 20
70.5010119278121
 30
0.0
  0
VERTEX
  5
7D8
  8
0
 10
150.0768607458165
 20
80.81308791152989
 30
0.0
  0
VERTEX
  5
7D9
  8
0
 10
159.6426680728179
 20
80.81308791152989
 30
0.0
  0
VERTEX
  5
7DA
  8
0
 10
159.6426680728179
 20
70.5010119278121
 30
0.0
  0
VERTEX
  5
7DB
  8
0
 10
165.6467386291272
 20
70.5010119278121
 30
0.0
  0
VERTEX
  5
7DC
  8
0
 10
165.6467386291272
 20
63.61498750447426
 30
0.0
  0
VERTEX
  5
7DD
  8
0
 10
159.6426680728179
 20
63.61498750447426
 30
0.0
  0
VERTEX
  5
7DE
  8
0
 10
159.6426680728179
 20
44.07631721953531
 30
0.0
 42
0.013922721001807
  0
VERTEX
  5
7DF
  8
0
 10
159.6664855252056
 20
43.22113828008116
 30
0.0
 42
0.0192878858691956
  0
VERTEX
  5
7E0
  8
0
 10
159.724617948467
 20
42.60623036269018
 30
0.0
 42
0.0539266122621809
  0
VERTEX
  5
7E1
  8
0
 10
159.9608391692403
 20
41.64335721164765
 30
0.0
 42
0.1134822823964533
  0
VERTEX
  5
7E2
  8
0
 10
160.2193302166442
 20
41.24388845427075
 30
0.0
 42
0.124045944471311
  0
VERTEX
  5
7E3
  8
0
 10
160.6422771037103
 20
40.99967508001583
 30
0.0
 42
0.0454126506333171
  0
VERTEX
  5
7E4
  8
0
 10
161.9360998837772
 20
40.75614435710362
 30
0.0
 42
0.0138944855921032
  0
VERTEX
  5
7E5
  8
0
 10
162.6899868358832
 20
40.70518046679353
 30
0.0
 42
0.0099282315790192
  0
VERTEX
  5
7E6
  8
0
 10
163.7471456847582
 20
40.68418696173343
 30
0.0
 42
0.0085986696328329
  0
VERTEX
  5
7E7
  8
0
 10
164.6799815056537
 20
40.70114761302242
 30
0.0
 42
0.0092087355259055
  0
VERTEX
  5
7E8
  8
0
 10
165.6467386291272
 20
40.75202956688945
 30
0.0
  0
VERTEX
  5
7E9
  8
0
 10
165.6467386291272
 20
33.52679211777141
 30
0.0
  0
VERTEX
  5
7EA
  8
0
 10
161.0673627810947
 20
33.35718560488131
 30
0.0
 42
-0.0235593311557886
  0
VERTEX
  5
7EB
  8
0
 10
158.2286211877935
 20
33.39258752312396
 30
0.0
 42
-0.0314975467957701
  0
VERTEX
  5
7EC
  8
0
 10
156.1201588203433
 20
33.65229072939439
 30
0.0
 42
-0.0256704380877418
  0
VERTEX
  5
7ED
  8
0
 10
154.8014728316657
 20
33.97060775354812
 30
0.0
 42
-0.031038037300226
  0
VERTEX
  5
7EE
  8
0
 10
153.7473050422946
 20
34.35570078656159
 30
0.0
 42
-0.0451806735383351
  0
VERTEX
  5
7EF
  8
0
 10
152.5757660041512
 20
34.99967662225718
 30
0.0
 42
-0.0531406559935923
  0
VERTEX
  5
7F0
  8
0
 10
151.7050832695614
 20
35.73167678534263
 30
0.0
 42
-0.0691357199280174
  0
VERTEX
  5
7F1
  8
0
 10
150.9579971009475
 20
36.74132204576173
 30
0.0
 42
-0.0581341497995221
  0
VERTEX
  5
7F2
  8
0
 10
150.400788148799
 20
38.12493934773946
 30
0.0
 42
-0.0371568035604575
  0
VERTEX
  5
7F3
  8
0
 10
150.1674179329072
 20
39.32267986863598
 30
0.0
 42
-0.0295465113250653
  0
VERTEX
  5
7F4
  8
0
 10
150.0768607458165
 20
40.85379347462356
 30
0.0
  0
VERTEX
  5
7F5
  8
0
 10
150.0768607458165
 20
63.61498750447426
 30
0.0
  0
SEQEND
  5
83A
  8
0
  0
POLYLINE
  5
534
  8
0
 66
     1
 10
0.0
 20
0.0
 30
0.0
 70
   129
  0
VERTEX
  5
7F6
  8
0
 10
213.1677698367256
 20
71.65433621546478
 30
0.0
 42
-0.0962518874990144
  0
VERTEX
  5
7F7
  8
0
 10
217.9845948028043
 20
70.70453974328022
 30
0.0
 42
-0.0692879570035516
  0
VERTEX
  5
7F8
  8
0
 10
220.1487765877932
 20
69.46868234237358
 30
0.0
 42
-0.0576108909467758
  0
VERTEX
  5
7F9
  8
0
 10
222.2926002302127
 20
67.38025209063433
 30
0.0
 42
-0.0656207564548964
  0
VERTEX
  5
7FA
  8
0
 10
223.5565965874899
 20
65.3091131772992
 30
0.0
 42
-0.0566763073401984
  0
VERTEX
  5
7FB
  8
0
 10
224.3957209900499
 20
62.6312697297117
 30
0.0
 42
-0.029463868460053
  0
VERTEX
  5
7FC
  8
0
 10
224.6236863355499
 20
60.7555668908474
 30
0.0
 42
-0.0155092714442138
  0
VERTEX
  5
7FD
  8
0
 10
224.73493401583
 20
57.16994001465097
 30
0.0
  0
VERTEX
  5
7FE
  8
0
 10
224.6670914106741
 20
33.86600514355159
 30
0.0
  0
VERTEX
  5
7FF
  8
0
 10
214.7620710578925
 20
33.86600514355159
 30
0.0
  0
VERTEX
  5
800
  8
0
 10
214.7620710578925
 20
57.40738913269678
 30
0.0
 42
0.048443339863664
  0
VERTEX
  5
801
  8
0
 10
214.5624048366395
 20
59.46337509150776
 30
0.0
 42
0.0676091361111748
  0
VERTEX
  5
802
  8
0
 10
214.0836450063321
 20
60.86736199565471
 30
0.0
 42
0.0783687794325709
  0
VERTEX
  5
803
  8
0
 10
213.2319782786112
 20
62.060159429659
 30
0.0
 42
0.0831473554577093
  0
VERTEX
  5
804
  8
0
 10
212.1136042709749
 20
62.87284480736795
 30
0.0
 42
0.06491675273176
  0
VERTEX
  5
805
  8
0
 10
210.9269809443457
 20
63.28305560120992
 30
0.0
 42
0.0508396571201155
  0
VERTEX
  5
806
  8
0
 10
209.3346626454095
 20
63.44538099158415
 30
0.0
 42
0.0583204250787098
  0
VERTEX
  5
807
  8
0
 10
207.4497201996279
 20
63.22476934198785
 30
0.0
 42
0.0726300885940813
  0
VERTEX
  5
808
  8
0
 10
206.0307684876574
 20
62.66127169166099
 30
0.0
 42
0.0822731601611171
  0
VERTEX
  5
809
  8
0
 10
204.7935198534039
 20
61.64592516833469
 30
0.0
 42
0.0723633050297854
  0
VERTEX
  5
80A
  8
0
 10
203.8054903251924
 20
60.12109333893829
 30
0.0
 42
0.0586857153920521
  0
VERTEX
  5
80B
  8
0
 10
203.2469470840244
 20
58.31035574028186
 30
0.0
 42
0.0455225780056865
  0
VERTEX
  5
80C
  8
0
 10
203.0253003658979
 20
55.8809305166859
 30
0.0
  0
VERTEX
  5
80D
  8
0
 10
203.0253003658979
 20
33.86600514355159
 30
0.0
  0
VERTEX
  5
80E
  8
0
 10
193.2898865260065
 20
33.86600514355159
 30
0.0
  0
VERTEX
  5
80F
  8
0
 10
193.2898865260065
 20
55.88093051668592
 30
0.0
 42
0.0121014988786615
  0
VERTEX
  5
810
  8
0
 10
193.2567633091695
 20
57.24928853569264
 30
0.0
 42
0.0155746151131759
  0
VERTEX
  5
811
  8
0
 10
193.1722403998346
 20
58.30955471175469
 30
0.0
 42
0.0307950960323866
  0
VERTEX
  5
812
  8
0
 10
192.9184231941001
 20
59.76833843253477
 30
0.0
 42
0.0482345972769307
  0
VERTEX
  5
813
  8
0
 10
192.6114604744461
 20
60.6638341801866
 30
0.0
 42
0.0812888013130065
  0
VERTEX
  5
814
  8
0
 10
191.7786580067752
 20
61.9081815325318
 30
0.0
 42
0.0868026205092653
  0
VERTEX
  5
815
  8
0
 10
190.6576323799858
 20
62.75263741836223
 30
0.0
 42
0.0667231883000109
  0
VERTEX
  5
816
  8
0
 10
189.460587087376
 20
63.17497573452077
 30
0.0
 42
0.051528936067299
  0
VERTEX
  5
817
  8
0
 10
187.8285568109454
 20
63.34361708385009
 30
0.0
 42
0.0426343362786346
  0
VERTEX
  5
818
  8
0
 10
185.986713377007
 20
63.18627954884609
 30
0.0
 42
0.056189160533467
  0
VERTEX
  5
819
  8
0
 10
184.6379708450181
 20
62.79450518684938
 30
0.0
 42
0.0843974022220964
  0
VERTEX
  5
81A
  8
0
 10
183.2429702787832
 20
61.91338553471737
 30
0.0
 42
0.0878267199371921
  0
VERTEX
  5
81B
  8
0
 10
182.2654631881503
 20
60.66383418018658
 30
0.0
 42
0.0485767642087469
  0
VERTEX
  5
81C
  8
0
 10
181.9111899520065
 20
59.76491770134841
 30
0.0
 42
0.0345631356855915
  0
VERTEX
  5
81D
  8
0
 10
181.629442329478
 20
58.43812213881031
 30
0.0
 42
0.0195214912508977
  0
VERTEX
  5
81E
  8
0
 10
181.5254742268276
 20
57.41333016214491
 30
0.0
 42
0.0155184757225806
  0
VERTEX
  5
81F
  8
0
 10
181.4852732288559
 20
56.11837963473177
 30
0.0
  0
VERTEX
  5
820
  8
0
 10
181.4852732288559
 20
33.86600514355159
 30
0.0
  0
VERTEX
  5
821
  8
0
 10
171.6820167838084
 20
33.86600514355159
 30
0.0
  0
VERTEX
  5
822
  8
0
 10
171.6820167838084
 20
70.77238234843627
 30
0.0
  0
VERTEX
  5
823
  8
0
 10
181.0782175979197
 20
70.77238234843627
 30
0.0
  0
VERTEX
  5
824
  8
0
 10
181.0782175979197
 20
65.37889523853124
 30
0.0
 42
-0.0332920118253284
  0
VERTEX
  5
825
  8
0
 10
183.0444184162454
 20
68.1092834200847
 30
0.0
 42
-0.0566857073175024
  0
VERTEX
  5
826
  8
0
 10
184.4703478557215
 20
69.48337285047154
 30
0.0
 42
-0.0504224876998012
  0
VERTEX
  5
827
  8
0
 10
186.0502532036077
 20
70.46532990775424
 30
0.0
 42
-0.0466866803501658
  0
VERTEX
  5
828
  8
0
 10
187.9283930668452
 20
71.17663225552216
 30
0.0
 42
-0.036216763285175
  0
VERTEX
  5
829
  8
0
 10
189.6805083437041
 20
71.52510806636272
 30
0.0
 42
-0.0309911227623955
  0
VERTEX
  5
82A
  8
0
 10
191.7634279099956
 20
71.65433621546475
 30
0.0
 42
-0.0278565218593235
  0
VERTEX
  5
82B
  8
0
 10
193.7143312173999
 20
71.54556104622066
 30
0.0
 42
-0.0329185113101661
  0
VERTEX
  5
82C
  8
0
 10
195.3424075084849
 20
71.25399024278903
 30
0.0
 42
-0.044505008590502
  0
VERTEX
  5
82D
  8
0
 10
197.1415276932588
 20
70.63377377673842
 30
0.0
 42
-0.0498720493274198
  0
VERTEX
  5
82E
  8
0
 10
198.6155310307555
 20
69.78866457367371
 30
0.0
 42
-0.1280594401833849
  0
VERTEX
  5
82F
  8
0
 10
201.8041334730893
 20
65.34497393595322
 30
0.0
 42
-0.0281276105489222
  0
VERTEX
  5
830
  8
0
 10
202.7944005428621
 20
66.84230919019225
 30
0.0
 42
-0.031476158102593
  0
VERTEX
  5
831
  8
0
 10
203.8323300574696
 20
68.06589824998453
 30
0.0
 42
-0.0374712630059424
  0
VERTEX
  5
832
  8
0
 10
205.1311905302499
 20
69.22703337896013
 30
0.0
 42
-0.039458523207511
  0
VERTEX
  5
833
  8
0
 10
206.5191945314339
 20
70.12787759945391
 30
0.0
 42
-0.1202401327707632
  0
SEQEND
  5
83B
  8
0
  0
POLYLINE
  5
535
  8
0
 66
     1
 10
0.0
 20
0.0
 30
0.0
 70
   129
  0
VERTEX
  5
834
  8
0
 10
243.486630080959
 20
33.86600514355159
 30
0.0
  0
VERTEX
  5
835
  8
0
 10
233.8190588462236
 20
33.86600514355159
 30
0.0
  0
VERTEX
  5
836
  8
0
 10
233.8190588462236
 20
83.8660051435516
 30
0.0
  0
VERTEX
  5
837
  8
0
 10
243.486630080959
 20
83.8660051435516
 30
0.0
  0
SEQEND
  5
83C
  8
0
  0
VIEWPORT
  5
7A6
 67
     1
  8
0
 10
5.25
 20
4.0
 30
0.0
 40
11.638
 41
8.993
 68
     1
 69
     1
1001
ACAD
1000
MVIEW
1002
{
1070
    16
1010
0.0
1020
0.0
1030
0.0
1010
0.0
1020
0.0
1030
1.0
1040
0.0
1040
8.993
1040
5.25
1040
4.0
1040
50.0
1040
0.0
1040
0.0
1070
     0
1070
   100
1070
     0
1070
     3
1070
     0
1070
     0
1070
     0
1070
     0
1040
0.0
1040
0.0
1040
0.0
1040
0.5
1040
0.5
1040
0.5
1040
0.5
1070
     0
1002
{
1002
}
1002
}
  0
ENDSEC
  0
EOF
